<svg width="20" height="20" viewBox="0 0 20 20" fill="none" xmlns="http://www.w3.org/2000/svg">
<path fill-rule="evenodd" clip-rule="evenodd" d="M17.1875 0C18.3047 0 19.25 0.945312 19.25 2.0625V17.1875C19.25 18.3477 18.3047 19.25 17.1875 19.25H2.0625C0.902344 19.25 0 18.3477 0 17.1875V2.0625C0 0.945312 0.902344 0 2.0625 0H17.1875Z" fill="white"/>
<path fill-rule="evenodd" clip-rule="evenodd" d="M12.8384 2H6.64502C4.07965 2 2 4.07965 2 6.64502V12.8384C2 15.4038 4.07965 17.4834 6.64502 17.4834H12.8384C15.4038 17.4834 17.4834 15.4038 17.4834 12.8384V6.64502C17.4834 4.07965 15.4038 2 12.8384 2ZM3.54808 6.64551C3.54808 4.93526 4.93451 3.54883 6.64476 3.54883H12.8381C14.5484 3.54883 15.9348 4.93526 15.9348 6.64551V12.8389C15.9348 14.5491 14.5484 15.9356 12.8381 15.9356H6.64476C4.93451 15.9356 3.54808 14.5491 3.54808 12.8389V6.64551ZM9.7413 13.613C7.60349 13.613 5.87045 11.88 5.87045 9.74218C5.87045 7.60437 7.60349 5.87133 9.7413 5.87133C11.8791 5.87133 13.6121 7.60437 13.6121 9.74218C13.6121 11.88 11.8791 13.613 9.7413 13.613ZM9.74154 12.0642C11.0242 12.0642 12.064 11.0244 12.064 9.74167C12.064 8.45898 11.0242 7.41916 9.74154 7.41916C8.45885 7.41916 7.41903 8.45898 7.41903 9.74167C7.41903 11.0244 8.45885 12.0642 9.74154 12.0642ZM14.3865 5.87083C14.3865 6.29839 14.0399 6.645 13.6124 6.645C13.1848 6.645 12.8382 6.29839 12.8382 5.87083C12.8382 5.44327 13.1848 5.09666 13.6124 5.09666C14.0399 5.09666 14.3865 5.44327 14.3865 5.87083Z" fill="#034694"/>
</svg>
