<svg width="21" height="20" viewBox="0 0 21 20" fill="none" xmlns="http://www.w3.org/2000/svg">
<path d="M18.75 0.125H2.20703C1.47656 0.125 0.875 0.769531 0.875 1.54297V18C0.875 18.7734 1.47656 19.375 2.20703 19.375H18.75C19.4805 19.375 20.125 18.7734 20.125 18V1.54297C20.125 0.769531 19.4805 0.125 18.75 0.125ZM6.67578 16.625H3.83984V7.47266H6.67578V16.625ZM5.25781 6.18359C4.3125 6.18359 3.58203 5.45312 3.58203 4.55078C3.58203 3.64844 4.3125 2.875 5.25781 2.875C6.16016 2.875 6.89062 3.64844 6.89062 4.55078C6.89062 5.45312 6.16016 6.18359 5.25781 6.18359ZM17.375 16.625H14.4961V12.1562C14.4961 11.125 14.4961 9.75 13.0352 9.75C11.5312 9.75 11.3164 10.9102 11.3164 12.1133V16.625H8.48047V7.47266H11.1875V8.71875H11.2305C11.6172 7.98828 12.5625 7.21484 13.9375 7.21484C16.8164 7.21484 17.375 9.14844 17.375 11.5977V16.625Z" fill="white"/>
</svg>
