<svg width="20" height="20" viewBox="0 0 20 20" fill="none" xmlns="http://www.w3.org/2000/svg">
<path d="M17.5625 0.125H2.4375C1.27734 0.125 0.375 1.07031 0.375 2.1875V17.3125C0.375 18.4727 1.27734 19.375 2.4375 19.375H17.5625C18.6797 19.375 19.625 18.4727 19.625 17.3125V2.1875C19.625 1.07031 18.6797 0.125 17.5625 0.125ZM15.457 6.95703C15.457 7.08594 15.457 7.21484 15.457 7.34375C15.457 11.0391 12.6211 15.3359 7.42188 15.3359C5.83203 15.3359 4.37109 14.9062 3.125 14.0898C3.33984 14.1328 3.55469 14.1328 3.76953 14.1328C5.10156 14.1328 6.30469 13.6602 7.29297 12.9297C6.04688 12.8867 5.01562 12.0703 4.62891 10.9531C5.10156 11.0391 5.48828 11.0391 5.91797 10.9102C4.62891 10.6523 3.68359 9.53516 3.68359 8.16016V8.11719C4.02734 8.33203 4.45703 8.46094 4.92969 8.46094C4.15625 7.94531 3.68359 7.08594 3.68359 6.14062C3.68359 5.58203 3.8125 5.10938 4.07031 4.67969C5.44531 6.39844 7.55078 7.51562 9.87109 7.64453C9.48438 5.75391 10.9023 4.16406 12.6211 4.16406C13.4375 4.16406 14.168 4.50781 14.6836 5.06641C15.3281 4.9375 15.9297 4.72266 16.4883 4.37891C16.2734 5.06641 15.8008 5.58203 15.2422 5.92578C15.8008 5.88281 16.3594 5.71094 16.875 5.49609C16.4883 6.05469 15.9727 6.57031 15.457 6.95703Z" fill="white"/>
</svg>
